<?xml version="1.0" encoding="UTF-8"?>
<svg xmlns="http://www.w3.org/2000/svg" xmlns:xlink="http://www.w3.org/1999/xlink" width="16px" height="7px" viewBox="0 0 16 7" version="1.1">
<defs>
<linearGradient id="linear0" gradientUnits="userSpaceOnUse" x1="327.16" y1="118.4" x2="11.47" y2="39.48" gradientTransform="matrix(1,0,0,1,0,0)">
<stop offset="0" style="stop-color:rgb(0%,0%,0%);stop-opacity:1;"/>
<stop offset="0.02" style="stop-color:rgb(0%,3.921569%,8.235294%);stop-opacity:1;"/>
<stop offset="0.08" style="stop-color:rgb(0%,10.588235%,22.352941%);stop-opacity:1;"/>
<stop offset="0.13" style="stop-color:rgb(0%,16.470588%,34.901961%);stop-opacity:1;"/>
<stop offset="0.19" style="stop-color:rgb(0%,21.176471%,45.882353%);stop-opacity:1;"/>
<stop offset="0.27" style="stop-color:rgb(0%,25.490196%,54.509804%);stop-opacity:1;"/>
<stop offset="0.35" style="stop-color:rgb(0%,28.235294%,61.176471%);stop-opacity:1;"/>
<stop offset="0.45" style="stop-color:rgb(0%,30.588235%,65.490196%);stop-opacity:1;"/>
<stop offset="0.6" style="stop-color:rgb(0%,31.764706%,68.235294%);stop-opacity:1;"/>
<stop offset="0.99" style="stop-color:rgb(0%,32.156863%,69.019608%);stop-opacity:1;"/>
</linearGradient>
</defs>
<g id="surface1">
<path style="fill-rule:nonzero;fill:rgb(0%,10.588235%,21.960784%);fill-opacity:1;stroke-width:1;stroke-linecap:butt;stroke-linejoin:miter;stroke:url(#linear0);stroke-miterlimit:10;" d="M 20.288715 138.557031 C 26.394838 133.862835 30.954076 128.229799 35.10624 122.049107 C 36.653124 119.702009 35.838974 118.450223 33.885015 117.198437 C 31.931056 115.946652 30.465586 115.398996 28.837287 117.902567 C 26.394838 121.814397 23.545314 125.413281 19.311735 127.682143 C 17.439191 128.699219 15.322402 129.794531 13.287028 128.386272 C 11.577313 127.134487 12.147218 125.022098 12.472878 123.14442 C 14.019762 112.895424 17.194946 103.037612 19.963055 93.179799 C 21.102865 89.346205 19.71881 87.625 16.462212 86.451451 C 11.495898 84.652009 6.203925 84.573772 0.586293 84.808482 C 1.563272 81.053125 2.458837 77.532478 3.517231 73.464174 C 7.26232 76.984821 11.495898 77.297768 15.892307 76.358929 C 19.474565 75.654799 22.649749 73.620647 24.766538 70.647656 C 28.104552 66.031696 28.593042 60.242188 25.987763 56.330357 C 23.545314 52.496763 18.171926 50.775558 12.635708 52.027344 C 11.495898 52.262054 10.437504 52.653237 8.809204 53.200893 C 10.681749 46.316071 12.391463 39.66596 14.264007 33.015848 C 14.671082 31.451116 16.462212 31.059933 17.927681 30.66875 C 29.895682 27.461049 42.677832 28.243415 54.238757 32.937612 C 60.18205 35.362946 60.34488 36.301786 58.472336 42.482478 C 58.228091 43.499554 57.983846 44.594866 57.576771 46.081362 C 65.636853 40.839509 73.28986 36.145313 81.838432 32.859375 C 88.433044 30.277567 95.109072 28.791071 102.273589 29.338728 C 113.834515 30.277567 118.800828 34.893527 120.184882 46.785491 C 122.952991 45.064286 125.55827 43.421317 128.163549 41.856585 C 138.99174 35.441183 149.982761 29.964621 162.927741 29.182254 C 176.768286 28.321652 184.665538 35.28471 185.316858 49.132589 C 185.642518 56.95625 183.281484 64.310491 181.001865 71.742969 C 178.315171 80.661942 175.302817 89.502679 173.511687 98.656362 C 172.778953 101.707589 172.778953 104.91529 173.593102 107.888281 C 174.570082 110.939509 176.605456 112.269531 179.94347 111.487165 C 187.270817 109.609487 192.318545 104.524107 196.877784 99.047545 C 205.99626 87.937946 212.428043 75.028906 218.045676 61.885156 C 220.325295 56.565067 222.035009 50.932031 224.151798 45.533705 C 224.884533 43.968973 224.640288 42.091295 223.581893 40.683036 C 219.75539 34.502344 217.801431 27.852232 218.77841 20.419754 C 220.488125 7.980134 234.00301 -1.721205 246.13384 0.938839 C 253.624017 2.347098 258.834575 9.075446 258.346085 16.664397 C 258.10184 23.236272 260.707119 26.678683 265.592018 30.277567 C 272.67512 35.28471 279.676807 40.604799 285.45727 47.333147 C 294.250087 57.503906 294.982822 65.71875 287.818304 77.141295 C 283.259066 84.495536 279.188318 92.00625 276.990113 100.377567 C 276.175964 103.115848 275.850304 106.010603 275.931719 108.905357 C 276.257379 113.599554 278.211338 115.633705 283.014821 115.868415 C 290.016508 116.181362 296.204046 113.599554 301.821679 109.76596 C 309.149026 104.837054 315.173734 98.343415 319.570142 90.754464 C 321.524102 87.39029 323.559476 87.233817 326.490415 88.955022 C 327.304564 89.346205 328.037299 89.815625 328.770034 90.285045 C 333.410687 93.727455 333.492102 94.353348 330.398333 99.204018 C 322.745326 111.017746 314.522414 122.283817 302.065924 129.559821 C 285.701515 139.026451 268.115882 141.921205 249.797514 137.852902 C 233.433105 134.254018 225.454438 121.657924 227.408397 105.071763 C 228.955281 92.084487 234.00301 80.427232 240.109132 69.082924 C 241.086112 67.439955 241.981677 65.796987 242.714411 64.075781 C 244.586956 59.146875 243.202901 55.391518 238.725078 52.575 C 237.015363 51.479687 236.282629 51.557924 235.631309 53.670313 C 230.827826 68.065848 224.396043 81.835491 216.580206 94.822768 C 206.15909 112.426004 193.295525 127.603906 173.593102 135.34933 C 162.602081 139.808817 150.552666 140.591183 139.073155 137.696429 C 129.059114 135.192857 123.767141 127.838616 123.767141 116.572545 C 123.767141 106.245312 126.616665 96.3875 129.221944 86.529687 C 130.931658 79.801339 132.804203 73.072991 134.513917 66.344643 C 135.002407 64.310491 135.490897 61.963393 133.618352 60.320424 C 131.827223 58.755692 129.629019 59.772768 127.67506 60.398661 C 127.267985 60.555134 126.942325 60.711607 126.616665 60.86808 C 120.510542 62.823996 117.253944 66.344643 115.788474 73.229464 C 111.636311 92.945089 105.855848 112.269531 101.785099 131.985156 C 101.052365 135.505804 98.284256 136.366406 95.597562 137.227009 C 88.270214 139.574107 80.617207 139.808817 73.045615 139.73058 C 68.486377 139.73058 64.008554 139.182924 59.612145 138.009375 C 53.913097 136.444643 52.691873 134.645201 54.157342 129.012165 C 59.449315 108.435937 64.741288 87.781473 70.033261 67.205246 C 70.277506 66.266406 70.440336 65.24933 70.603166 64.310491 C 70.847411 60.711607 69.300527 59.225112 65.718268 59.616295 C 58.879411 60.242188 53.261778 65.171094 51.633478 71.742969 C 46.015845 91.615067 40.968117 111.643638 36.571709 131.828683 C 36.327464 133.549888 35.187655 135.114621 33.559355 135.81875 C 29.407192 137.696429 24.929368 138.635268 20.288715 138.557031 Z M 20.288715 138.557031 " transform="matrix(0.0479795,0,0,0.0499287,0.0109325,0)"/>
</g>
</svg>
